<svg width="28" height="37" viewBox="0 0 28 37" fill="none" xmlns="http://www.w3.org/2000/svg">
<path d="M14 3C10.9522 3 8.34548 4.07248 6.20898 6.20898C4.07248 8.34548 3 10.9522 3 14C3 17.0478 4.07248 19.6545 6.20898 21.791C8.34548 23.9275 10.9522 25 14 25C17.0478 25 19.6545 23.9275 21.791 21.791C23.9275 19.6545 25 17.0478 25 14C25 10.9522 23.9275 8.34548 21.791 6.20898C19.6545 4.07248 17.0478 3 14 3ZM14 9.25C15.3272 9.25 16.4392 9.70877 17.3652 10.6348C18.2912 11.5608 18.75 12.6728 18.75 14C18.75 15.3272 18.2912 16.4392 17.3652 17.3652C16.4392 18.2912 15.3272 18.75 14 18.75C12.6728 18.75 11.5608 18.2912 10.6348 17.3652C9.70877 16.4392 9.25 15.3272 9.25 14C9.25 12.6728 9.70877 11.5608 10.6348 10.6348C11.5608 9.70877 12.6728 9.25 14 9.25ZM4 23.0391L3.87109 22.8955C2.80458 21.7167 1.9757 20.3692 1.38477 18.8496C0.795999 17.3355 0.5 15.7204 0.5 14C0.5 10.2215 1.80511 7.03864 4.42188 4.42188C7.03864 1.80511 10.2215 0.5 14 0.5C17.7785 0.5 20.9614 1.80511 23.5781 4.42188C26.1949 7.03864 27.5 10.2215 27.5 14C27.5 15.7204 27.204 17.3355 26.6152 18.8496C26.0243 20.3692 25.1954 21.7167 24.1289 22.8955L24 23.0391V36.0557L14.1582 32.7754L14 32.7227L13.8418 32.7754L4 36.0557V23.0391Z" fill="#38A3A5" stroke="#24577A"/>
</svg>
