<svg width="54" height="54" viewBox="0 0 54 54" fill="none" xmlns="http://www.w3.org/2000/svg">
<path d="M24.9 36.731L34.8155 26.8155L33.377 25.377L24.8885 33.8655L20.6115 29.5885L19.1845 31.0155L24.9 36.731ZM16.231 45C15.3103 45 14.5417 44.6917 13.925 44.075C13.3083 43.4583 13 42.6897 13 41.769V12.231C13 11.3103 13.3083 10.5417 13.925 9.925C14.5417 9.30833 15.3103 9 16.231 9H32L41 18V41.769C41 42.6897 40.6917 43.4583 40.075 44.075C39.4583 44.6917 38.6897 45 37.769 45H16.231ZM31 19V11H16.231C15.923 11 15.6408 11.1282 15.3845 11.3845C15.1282 11.6408 15 11.923 15 12.231V41.769C15 42.077 15.1282 42.3592 15.3845 42.6155C15.6408 42.8718 15.923 43 16.231 43H37.769C38.077 43 38.3592 42.8718 38.6155 42.6155C38.8718 42.3592 39 42.077 39 41.769V19H31Z" fill="#29638A"/>
</svg>
